<svg width="24" height="24" viewBox="0 0 24 24" fill="none" xmlns="http://www.w3.org/2000/svg">
<rect opacity="0.4" x="3" y="3" width="18" height="18" rx="2" fill="#98A2B3"/>
<path d="M3 5C3 3.89543 3.89543 3 5 3H19C20.1046 3 21 3.89543 21 5V7H3V5Z" fill="#98A2B3"/>
<rect x="9" y="9" width="2" height="2" rx="1" fill="#98A2B3"/>
<rect x="13" y="9" width="2" height="2" rx="1" fill="#98A2B3"/>
<rect x="17" y="9" width="2" height="2" rx="1" fill="#98A2B3"/>
<rect x="17" y="13" width="2" height="2" rx="1" fill="#98A2B3"/>
<rect x="13" y="13" width="2" height="2" rx="1" fill="#98A2B3"/>
<rect x="9" y="13" width="2" height="2" rx="1" fill="#98A2B3"/>
<rect x="5" y="13" width="2" height="2" rx="1" fill="#98A2B3"/>
<rect x="5" y="17" width="2" height="2" rx="1" fill="#98A2B3"/>
<rect x="9" y="17" width="2" height="2" rx="1" fill="#98A2B3"/>
<rect x="13" y="17" width="2" height="2" rx="1" fill="#98A2B3"/>
</svg>
